<?xml version="1.0" standalone="no"?>
<!DOCTYPE svg PUBLIC "-//W3C//DTD SVG 20010904//EN"
 "http://www.w3.org/TR/2001/REC-SVG-20010904/DTD/svg10.dtd">
<svg version="1.0" xmlns="http://www.w3.org/2000/svg"
 width="512.000000pt" height="512.000000pt" viewBox="0 0 512.000000 512.000000"
 preserveAspectRatio="xMidYMid meet">

<g transform="translate(0.000000,512.000000) scale(0.100000,-0.100000)"
fill="#000000" stroke="none">
<path d="M406 4745 l7 -105 -70 0 -71 0 -7 -167 c-4 -93 -8 -190 -8 -218 l-2
-50 76 -3 77 -3 6 -302 c12 -567 37 -3078 31 -3088 -4 -5 -41 -9 -83 -9 -42 0
-83 -4 -90 -9 -11 -7 -12 -35 -5 -147 l8 -139 86 -3 86 -3 8 -119 7 -120 290
0 290 0 -4 124 -4 124 291 6 c159 4 742 13 1295 21 553 8 1096 17 1208 20
l202 6 0 -83 c0 -46 3 -113 7 -150 l6 -68 273 0 274 0 0 109 c0 59 3 129 6
155 l7 46 128 0 129 0 0 32 c0 45 -19 352 -26 417 l-6 54 -114 -7 -114 -7 0
38 c0 21 7 567 15 1213 8 646 15 1278 15 1403 l0 229 100 -3 c55 -2 101 -1
104 2 2 2 9 119 15 259 6 140 14 283 17 318 l6 62 -116 0 -116 0 0 135 0 135
-380 0 -380 0 7 -131 6 -131 -194 6 c-107 4 -725 13 -1374 21 -1600 21 -1464
17 -1475 35 -5 8 -10 57 -10 108 l0 92 -220 0 -221 0 7 -105z m358 -17 c7 -71
178 -3889 174 -3892 -7 -6 -401 -26 -406 -21 -3 3 -13 710 -23 1572 -9 863
-20 1754 -23 1981 l-6 412 139 0 140 0 5 -52z m3804 2 c2 -25 1 -68 -3 -96
l-6 -51 -292 5 c-161 2 -293 5 -294 6 -1 1 -5 43 -9 94 l-7 92 304 -2 304 -3
3 -45z m-4158 -313 l0 -143 -38 4 -39 4 4 106 c6 162 8 172 43 172 l30 0 0
-143z m2565 113 c875 -11 1641 -23 1703 -26 l114 -6 -6 -32 c-3 -17 -8 -119
-12 -227 -4 -109 -10 -203 -15 -210 -6 -11 -189 -2 -966 44 -527 32 -1257 76
-1623 98 -1156 69 -1302 78 -1305 81 -1 2 -6 72 -10 157 l-7 153 269 -6 c147
-3 984 -15 1858 -26z m-573 -450 c826 -50 1504 -92 1506 -94 4 -5 105 -2956
100 -2961 -5 -5 -2981 -185 -2986 -181 -4 4 -151 3199 -152 3289 0 26 4 37 15
37 8 0 690 -41 1517 -90z m1912 -115 c132 -8 240 -16 242 -18 1 -1 -7 -702
-17 -1557 -10 -855 -18 -1666 -19 -1802 l0 -248 -205 0 -205 0 0 38 c0 21 -27
829 -60 1796 -33 967 -60 1769 -60 1782 0 29 -4 29 324 9z m450 -3047 c3 -40
8 -116 12 -169 l6 -96 -32 -7 c-18 -3 -59 -6 -91 -6 l-59 0 0 169 0 170 28 4
c15 2 50 5 78 6 l52 1 6 -72z m-743 -133 c2 -141 1 -150 -17 -152 -59 -6
-3645 -56 -3650 -50 -3 3 -9 35 -11 70 l-6 65 74 6 c41 4 297 20 569 36 272
17 641 39 820 50 179 11 480 30 670 41 190 12 613 38 940 58 327 21 598 35
602 32 4 -3 8 -73 9 -156z m-3061 -360 l0 -85 -215 0 -215 0 0 80 0 79 108 4
c59 1 155 4 215 5 l107 2 0 -85z"/>
</g>
</svg>
