<?xml version="1.0" standalone="no"?>
<!DOCTYPE svg PUBLIC "-//W3C//DTD SVG 20010904//EN"
 "http://www.w3.org/TR/2001/REC-SVG-20010904/DTD/svg10.dtd">
<svg version="1.0" xmlns="http://www.w3.org/2000/svg"
 width="512.000000pt" height="512.000000pt" viewBox="0 0 512.000000 512.000000"
 preserveAspectRatio="xMidYMid meet">

<g transform="translate(0.000000,512.000000) scale(0.100000,-0.100000)"
fill="#000000" stroke="none">
<path d="M100 5101 c-19 -10 -48 -35 -65 -55 l-30 -38 -3 -426 c-2 -235 0
-442 3 -460 7 -40 59 -101 102 -118 24 -11 92 -14 263 -14 l230 0 0 -197 -1
-198 -60 -35 c-111 -63 -214 -196 -255 -329 -8 -25 -17 -80 -21 -121 -6 -73
-8 -76 -49 -113 -26 -23 -57 -65 -76 -105 l-33 -67 0 -340 0 -340 32 -66 c28
-55 59 -91 208 -233 l175 -168 0 -149 c0 -164 6 -187 58 -231 l29 -24 -34 -39
c-70 -81 -80 -209 -22 -299 16 -26 36 -49 44 -52 12 -5 7 -15 -20 -47 -35 -41
-65 -117 -65 -167 0 -50 31 -129 63 -164 l33 -34 -38 -40 c-47 -51 -64 -109
-48 -170 15 -61 21 -68 129 -156 132 -108 161 -121 227 -96 40 16 232 177 249
210 13 25 15 130 15 747 l0 718 174 168 c139 133 180 179 203 225 l28 57 3
341 c3 331 2 342 -19 400 -16 42 -38 75 -81 117 -58 58 -58 59 -58 119 0 120
-86 300 -183 384 -23 19 -68 52 -99 71 l-58 36 0 193 0 194 650 0 650 0 0
-197 -1 -198 -60 -35 c-165 -94 -277 -295 -279 -500 l-1 -65 -50 -35 c-96 -68
-181 -198 -215 -331 -22 -83 -22 -225 0 -308 65 -251 292 -440 529 -441 l77 0
0 -841 c0 -634 3 -852 12 -883 18 -58 90 -128 151 -145 95 -27 199 10 252 91
23 34 31 62 39 130 l10 88 73 0 c41 0 88 6 106 14 43 17 95 78 102 118 3 18 5
157 3 310 l-3 276 -31 39 c-45 56 -85 73 -176 73 l-78 0 0 365 0 365 73 0
c340 0 610 369 533 728 -30 142 -125 290 -235 366 l-41 29 0 74 c0 41 -7 103
-16 137 -37 142 -148 290 -266 351 l-58 30 0 198 0 197 648 -2 647 -3 3 -191
2 -191 -64 -38 c-121 -70 -216 -193 -258 -330 -28 -90 -29 -225 -4 -311 l18
-61 -47 -64 c-85 -115 -129 -224 -144 -358 -33 -294 111 -577 366 -722 l43
-24 0 -160 c0 -174 8 -203 64 -241 l26 -16 -35 -41 c-35 -41 -65 -117 -65
-167 0 -50 31 -129 63 -163 l32 -35 -33 -38 c-33 -38 -62 -115 -62 -164 0 -50
31 -129 64 -164 l33 -35 -25 -23 c-61 -58 -85 -172 -48 -233 25 -42 206 -187
254 -204 32 -12 47 -12 79 -3 46 15 236 170 258 212 11 22 15 63 15 164 0 133
0 135 -26 155 -35 28 -69 26 -99 -4 -24 -23 -25 -31 -25 -137 l0 -113 -70 -58
c-38 -32 -76 -60 -84 -63 -20 -8 -166 114 -166 138 0 11 13 33 29 49 16 16 37
48 46 72 21 57 9 107 -40 164 -29 34 -35 49 -35 86 0 37 6 51 34 82 66 72 67
156 1 232 -29 34 -35 49 -35 86 0 37 6 51 34 81 67 74 67 156 -1 235 l-33 39
0 160 c0 89 -4 172 -9 186 -7 16 -34 37 -83 62 -49 25 -98 63 -149 114 -120
119 -170 237 -170 407 -1 124 34 238 103 336 l20 28 60 -56 c32 -30 72 -62 88
-70 26 -13 28 -18 20 -41 -13 -34 -13 -138 1 -184 30 -100 140 -187 247 -197
94 -9 163 17 232 85 96 97 117 214 60 330 -75 148 -236 207 -383 139 -53 -24
-61 -25 -85 -13 -39 20 -122 95 -122 110 0 8 33 30 73 50 343 173 748 -22 833
-401 33 -148 -1 -313 -92 -446 -58 -84 -117 -136 -216 -187 -43 -23 -84 -51
-93 -63 -13 -18 -15 -83 -15 -470 l0 -448 25 -24 c30 -30 64 -32 99 -4 l26 20
0 418 0 418 65 38 c162 95 277 244 336 435 30 97 33 280 6 380 -26 93 -89 216
-143 278 l-47 53 18 75 c58 246 -53 500 -272 625 l-53 30 0 195 0 194 220 0
c163 0 229 4 253 14 43 17 95 78 102 118 3 18 5 225 3 460 l-3 426 -30 38
c-17 20 -46 45 -65 55 -33 18 -106 19 -2033 19 l-1998 0 -24 -25 c-30 -29 -32
-64 -6 -96 l19 -24 1994 -5 1993 -5 0 -410 0 -410 -212 -3 -213 -2 0 197 c0
225 -7 251 -76 314 -105 94 -276 64 -341 -60 -22 -42 -23 -55 -23 -248 l0
-203 -650 0 -650 0 0 188 c0 103 -5 204 -11 226 -6 21 -29 58 -51 82 -102 110
-277 89 -355 -43 -28 -48 -28 -49 -31 -250 l-4 -203 -649 0 -649 0 0 198 c0
224 -7 250 -76 313 -107 96 -277 64 -344 -66 -24 -47 -25 -58 -28 -247 l-4
-198 -221 2 -222 3 0 410 0 410 256 5 c235 5 259 7 278 24 31 28 28 79 -5 105
-25 20 -39 21 -288 21 -235 0 -265 -2 -296 -19z m775 -566 l25 -24 0 -540 0
-540 -26 -20 c-46 -36 -94 -23 -113 30 -15 43 -15 1023 0 1066 18 54 75 68
114 28z m1750 0 l25 -24 0 -536 0 -536 -25 -24 c-29 -30 -64 -32 -96 -6 l-24
19 -3 528 c-2 367 1 537 8 555 21 50 78 62 115 24z m1739 4 l26 -20 0 -542 0
-541 -22 -23 c-27 -29 -71 -30 -98 -3 -20 20 -20 33 -20 564 l0 545 26 20 c15
12 34 21 44 21 10 0 29 -9 44 -21z m-3683 -1242 c117 -101 287 -61 351 81 10
23 23 42 29 42 5 0 32 -23 60 -50 58 -58 107 -154 116 -229 l6 -51 -417 0
c-256 0 -416 4 -416 10 0 5 5 33 11 62 17 79 65 163 127 219 l55 51 19 -51
c12 -32 34 -63 59 -84z m3465 25 c39 -51 122 -86 189 -80 82 7 142 48 181 125
l30 61 46 -39 c90 -76 140 -191 140 -316 0 -41 -4 -79 -8 -83 -5 -5 -40 6 -78
25 -105 51 -193 70 -321 70 -133 0 -191 -14 -314 -71 -51 -24 -95 -44 -96 -44
-2 0 -6 26 -10 58 -14 126 31 250 128 347 l60 60 14 -39 c7 -22 25 -55 39 -74z
m-1772 53 c31 -77 119 -135 202 -135 84 0 171 58 206 138 10 23 23 42 28 42 5
0 31 -22 59 -50 65 -65 112 -160 118 -242 l5 -63 -100 3 c-110 4 -177 -10
-266 -55 l-49 -25 -51 25 c-94 46 -160 60 -267 55 l-99 -4 0 26 c0 43 29 141
57 192 25 45 112 138 130 138 4 0 16 -20 27 -45z m-1076 -456 c26 -13 54 -38
70 -62 l27 -40 3 -318 c2 -278 1 -323 -14 -351 -8 -18 -101 -116 -205 -218
l-190 -185 1 -730 0 -730 -75 -60 c-41 -33 -80 -61 -85 -63 -5 -2 -44 24 -85
59 -83 69 -91 90 -49 130 74 69 74 179 -2 250 -19 18 -24 32 -24 75 0 35 5 56
14 61 7 4 25 26 40 47 37 55 36 117 -3 178 -16 25 -34 49 -40 52 -14 9 -15
116 -1 116 6 0 24 21 40 47 22 35 30 59 30 93 0 34 -8 58 -30 93 -16 26 -34
47 -40 47 -6 0 -10 56 -10 153 -1 96 -5 162 -13 178 -7 15 -91 101 -187 193
-96 91 -184 183 -195 204 -18 34 -20 60 -23 322 -3 284 2 349 32 392 12 17 16
14 42 -37 34 -68 128 -173 188 -211 41 -26 43 -30 34 -53 -6 -14 -10 -56 -11
-93 -1 -194 186 -329 378 -274 78 23 163 106 190 185 80 242 -167 464 -399
358 l-59 -27 -42 24 c-68 40 -165 161 -165 206 0 7 132 10 407 10 394 0 408
-1 451 -21z m1740 -35 c32 -15 80 -51 108 -79 184 -183 176 -491 -17 -669 -89
-82 -135 -101 -249 -101 -52 0 -111 4 -130 8 -29 7 -41 4 -63 -13 l-27 -21 0
-660 c0 -646 0 -659 20 -679 22 -22 60 -26 90 -10 30 16 40 67 40 207 l0 134
68 -3 67 -3 0 -260 0 -260 -121 -5 c-163 -7 -161 -5 -166 -157 -3 -111 -4
-116 -31 -139 -36 -31 -71 -31 -102 1 l-25 24 0 901 0 901 -26 26 c-20 20 -31
24 -57 19 -18 -4 -68 -9 -112 -12 -65 -5 -91 -2 -137 14 -77 27 -141 73 -194
140 -141 181 -130 441 27 607 l52 55 34 -57 c48 -81 147 -179 220 -217 1 -1
-5 -26 -13 -56 -34 -130 30 -266 154 -327 47 -23 70 -28 132 -28 92 1 156 30
218 100 130 147 76 376 -107 458 -66 30 -170 28 -234 -3 -46 -22 -50 -22 -82
-7 -47 23 -113 84 -147 136 -42 67 -39 71 45 71 90 0 151 -18 227 -64 32 -20
69 -36 82 -36 12 0 45 16 72 35 110 78 260 89 384 29z m-2076 -379 c13 -17 9
-74 -7 -105 -43 -84 -155 -105 -223 -42 -33 31 -54 90 -46 131 l5 26 132 0
c77 0 135 -4 139 -10z m1750 0 c15 -19 8 -90 -12 -122 -75 -124 -263 -73 -263
72 0 23 2 46 5 51 8 12 261 12 270 -1z m1746 -36 c6 -107 -105 -180 -204 -133
-47 22 -74 70 -74 130 l0 49 137 -1 138 0 3 -45z"/>
</g>
</svg>
