<?xml version="1.0" standalone="no"?>
<!DOCTYPE svg PUBLIC "-//W3C//DTD SVG 20010904//EN"
 "http://www.w3.org/TR/2001/REC-SVG-20010904/DTD/svg10.dtd">
<svg version="1.0" xmlns="http://www.w3.org/2000/svg"
 width="512.000000pt" height="512.000000pt" viewBox="0 0 512.000000 512.000000"
 preserveAspectRatio="xMidYMid meet">

<g transform="translate(0.000000,512.000000) scale(0.100000,-0.100000)"
fill="#000000" stroke="none">
<path d="M1550 5106 c-65 -18 -181 -71 -207 -95 -47 -41 -16 -121 46 -121 15
0 62 16 104 35 117 54 146 54 495 -4 199 -32 313 -56 334 -68 26 -15 236 -300
226 -307 -2 -2 -41 -8 -86 -15 -46 -7 -89 -14 -96 -17 -7 -3 -48 25 -92 62
-43 36 -92 72 -109 79 -16 7 -82 21 -146 30 -106 17 -118 17 -138 3 -13 -9
-103 -87 -202 -173 -171 -150 -179 -158 -194 -210 -18 -60 -13 -108 15 -165
42 -83 80 -97 312 -114 161 -12 206 -19 262 -40 146 -55 266 -154 266 -220 0
-33 -33 -36 -222 -20 -100 9 -356 19 -568 23 l-385 6 -65 31 c-36 17 -140 74
-230 126 -91 52 -173 98 -182 101 -17 6 -18 31 -18 332 l0 326 117 -6 c114 -7
121 -6 208 24 114 39 139 57 143 104 2 26 -3 40 -19 56 -30 28 -53 27 -151
-10 -80 -29 -87 -30 -189 -24 l-107 7 -6 38 c-8 50 -48 97 -94 111 -22 6 -99
9 -194 7 -140 -3 -160 -5 -185 -24 -64 -47 -63 -38 -63 -587 0 -552 0 -549 64
-588 27 -17 52 -19 207 -19 166 0 178 1 204 22 15 12 35 33 44 48 l16 28 170
-99 c262 -153 284 -159 589 -159 116 0 269 -3 339 -7 l129 -6 35 -74 c46 -93
127 -191 206 -250 126 -93 232 -131 387 -139 137 -8 225 11 350 72 79 39 110
62 181 134 70 69 94 102 127 170 68 141 91 272 73 404 -35 253 -181 448 -415
556 l-81 38 -109 158 c-161 234 -183 262 -228 294 -55 40 -68 43 -418 100
-317 52 -375 57 -450 36z m-1030 -716 l0 -460 -120 0 -120 0 0 460 0 460 120
0 120 0 0 -460z m1609 110 c30 -21 66 -59 60 -63 -104 -72 -178 -147 -229
-230 l-23 -39 -106 7 c-58 3 -123 8 -144 11 -44 7 -72 40 -60 71 5 11 77 81
162 155 l154 135 80 -14 c44 -8 92 -22 106 -33z m614 -144 c86 -32 166 -85
218 -144 200 -227 191 -555 -21 -764 -117 -114 -260 -167 -424 -155 -140 10
-256 64 -356 167 -51 51 -100 125 -90 132 3 2 60 2 128 0 l122 -4 0 -44 c0
-44 0 -44 35 -44 25 0 35 4 35 16 0 11 5 14 18 9 9 -4 37 -14 61 -22 l43 -16
-5 -44 c-5 -47 10 -73 41 -73 29 0 38 13 48 65 8 44 12 50 39 55 98 21 155 89
155 186 0 90 -47 145 -194 227 -93 52 -126 85 -126 128 0 41 9 58 41 74 40 21
81 18 120 -8 30 -20 51 -58 73 -129 4 -12 15 -18 34 -18 29 0 29 0 36 77 12
141 11 143 -29 143 -24 0 -35 -5 -35 -15 0 -19 -2 -19 -44 6 -30 17 -35 25
-30 45 3 13 3 36 0 50 -6 22 -11 25 -44 22 -35 -3 -37 -5 -42 -43 -5 -36 -8
-40 -40 -46 -88 -15 -152 -68 -166 -137 -4 -18 -8 -32 -10 -32 -1 0 -26 15
-55 33 -29 17 -79 44 -112 58 -34 14 -62 30 -65 37 -7 21 121 136 194 175 101
52 169 67 284 63 71 -3 112 -11 163 -30z m-100 -658 c19 -23 22 -69 6 -100
-28 -52 -133 -59 -189 -11 -35 29 -37 39 -11 67 21 24 41 78 41 113 l0 25 68
-37 c37 -20 75 -45 85 -57z"/>
<path d="M4125 3179 c-169 -39 -558 -202 -607 -255 -82 -88 -100 -321 -38
-487 23 -62 93 -146 152 -183 176 -111 473 -102 596 18 122 120 213 470 184
706 -19 160 -65 213 -182 211 -36 -1 -83 -5 -105 -10z m132 -166 c14 -50 8
-245 -11 -333 -36 -172 -87 -283 -148 -320 -50 -30 -159 -44 -240 -31 -161 27
-248 115 -264 268 -8 75 11 203 34 224 20 18 245 116 370 161 119 42 171 56
214 57 33 1 39 -3 45 -26z"/>
<path d="M2640 3030 c-141 -13 -272 -35 -407 -70 -352 -91 -652 -289 -815
-537 l-44 -67 -160 -1 c-130 -1 -172 -5 -229 -22 -113 -34 -145 -41 -232 -52
-180 -22 -349 -125 -413 -251 -25 -50 -25 -71 1 -104 14 -18 30 -26 50 -26 32
0 49 15 103 90 29 40 152 127 164 115 2 -2 -1 -20 -8 -40 -22 -67 -16 -174 12
-237 68 -149 265 -182 421 -72 112 80 129 252 38 396 -24 38 -27 47 -14 52 15
6 193 8 193 3 0 -2 -9 -30 -21 -63 -44 -126 -60 -225 -66 -400 -4 -110 -1
-202 6 -255 40 -284 151 -510 346 -704 74 -75 240 -201 283 -216 6 -2 24 -104
41 -226 17 -122 37 -236 46 -252 8 -17 31 -43 52 -58 36 -28 37 -28 212 -31
270 -5 291 6 346 186 20 64 40 126 44 137 8 19 14 20 127 13 112 -7 414 5 480
18 l30 6 38 -129 c66 -224 69 -227 324 -231 168 -3 186 -2 225 17 76 37 86 63
118 308 16 120 32 228 34 240 3 14 34 39 88 72 177 109 318 242 422 397 l54
80 173 57 c191 62 224 83 269 167 23 43 24 53 24 250 0 193 -1 207 -22 245
-49 87 -75 106 -232 160 l-115 40 -37 92 c-44 112 -62 141 -93 149 -34 8 -79
-16 -90 -47 -7 -21 -1 -45 29 -120 76 -190 87 -201 252 -254 162 -53 158 -45
158 -265 0 -226 11 -211 -204 -280 -86 -27 -170 -58 -188 -69 -17 -11 -54 -53
-82 -94 -111 -165 -244 -291 -400 -380 -40 -23 -89 -56 -108 -72 l-35 -31 -24
-174 c-14 -96 -30 -211 -37 -255 l-12 -80 -155 -3 -156 -2 -44 151 c-56 193
-64 204 -157 204 -37 0 -142 -6 -233 -13 -116 -8 -203 -9 -295 -2 -188 14
-183 14 -219 -22 -32 -33 -36 -42 -96 -246 l-21 -73 -157 3 -157 3 -32 238
c-36 275 -28 259 -158 337 -268 162 -442 415 -500 729 -17 96 -20 337 -5 427
46 263 132 439 296 600 300 296 784 434 1383 394 174 -12 193 -11 216 4 19 13
25 25 25 55 0 54 -24 71 -112 82 -118 13 -425 18 -538 9z m-1694 -916 c45 -21
74 -71 81 -138 7 -64 -9 -96 -59 -122 -44 -23 -121 -14 -153 16 -21 20 -25 33
-25 84 0 67 21 113 69 153 31 27 43 28 87 7z"/>
<path d="M2627 2629 c-130 -13 -311 -78 -379 -137 -40 -34 -7 -122 46 -122 13
0 61 18 108 40 47 22 116 47 153 55 101 24 252 21 350 -6 127 -34 131 -34 159
-6 52 53 26 106 -66 136 -125 40 -240 52 -371 40z"/>
<path d="M3863 1905 c-50 -35 -18 -142 62 -213 52 -46 95 -62 166 -62 126 0
271 156 228 246 -30 63 -103 55 -139 -15 -28 -56 -58 -81 -96 -81 -41 0 -69
23 -102 85 -24 44 -31 50 -62 53 -20 1 -45 -4 -57 -13z"/>
</g>
</svg>
